<?xml version="1.0" encoding="UTF-8" standalone="no"?>
<!DOCTYPE svg PUBLIC "-//W3C//DTD SVG 1.1//EN"
 "http://www.w3.org/Graphics/SVG/1.1/DTD/svg11.dtd">
<!-- Generated by graphviz version 2.44.1 (20200629.0846)
 -->
<!-- Pages: 1 -->
<svg width="180pt" height="174pt"
 viewBox="0.00 0.00 180.07 173.72" xmlns="http://www.w3.org/2000/svg" xmlns:xlink="http://www.w3.org/1999/xlink">
<g id="graph0" class="graph" transform="scale(1 1) rotate(0) translate(4 169.72)">
<polygon fill="white" stroke="transparent" points="-4,4 -4,-169.72 176.07,-169.72 176.07,4 -4,4"/>
<!-- D1 -->
<g id="node1" class="node">
<title>D1</title>
<polygon fill="lightgray" stroke="black" points="69.86,-165.72 41.86,-165.72 41.86,-147.72 69.86,-147.72 69.86,-165.72"/>
<text text-anchor="middle" x="55.86" y="-154.52" font-family="Times New Roman,serif" font-size="9.00">D1</text>
</g>
<!-- Should we jump? -->
<g id="node3" class="node">
<title>Should we jump?</title>
<ellipse fill="lightblue" stroke="black" cx="55.86" cy="-55.86" rx="55.72" ry="55.72"/>
<text text-anchor="middle" x="55.86" y="-53.66" font-family="Times New Roman,serif" font-size="9.00">Should we jump?</text>
</g>
<!-- D1&#45;&gt;Should we jump? -->
<g id="edge2" class="edge">
<title>D1&#45;&gt;Should we jump?</title>
<path fill="none" stroke="red" stroke-width="0.12" d="M55.86,-147.63C55.86,-141.41 55.86,-132.17 55.86,-121.93"/>
<polygon fill="red" stroke="red" stroke-width="0.12" points="59.36,-121.87 55.86,-111.87 52.36,-121.87 59.36,-121.87"/>
</g>
<!-- D2 -->
<g id="node2" class="node">
<title>D2</title>
<polygon fill="lightgray" stroke="black" points="139.86,-165.72 111.86,-165.72 111.86,-147.72 139.86,-147.72 139.86,-165.72"/>
<text text-anchor="middle" x="125.86" y="-154.52" font-family="Times New Roman,serif" font-size="9.00">D2</text>
</g>
<!-- D2&#45;&gt;Should we jump? -->
<g id="edge1" class="edge">
<title>D2&#45;&gt;Should we jump?</title>
<path fill="none" stroke="green" stroke-width="0.73" stroke-dasharray="1,5" d="M120.13,-147.63C114.07,-139.07 103.96,-124.79 93.53,-110.06"/>
<polygon fill="green" stroke="green" stroke-width="0.73" points="96.36,-108 87.72,-101.86 90.64,-112.04 96.36,-108"/>
</g>
<!-- 749 -->
<g id="node4" class="node">
<title>749</title>
<ellipse fill="white" stroke="black" cx="150.86" cy="-55.86" rx="21.43" ry="21.43"/>
<text text-anchor="middle" x="150.86" y="-53.66" font-family="Times New Roman,serif" font-size="9.00">749</text>
</g>
<!-- D2&#45;&gt;749 -->
<g id="edge3" class="edge">
<title>D2&#45;&gt;749</title>
<path fill="none" stroke="green" stroke-width="0.35" d="M127.91,-147.63C131.25,-134.4 138.06,-107.47 143.4,-86.37"/>
<polygon fill="green" stroke="green" stroke-width="0.35" points="146.82,-87.11 145.88,-76.56 140.03,-85.4 146.82,-87.11"/>
</g>
</g>
</svg>
